<mxfile host="Electron" agent="Mozilla/5.0 (Windows NT 10.0; Win64; x64) AppleWebKit/537.36 (KHTML, like Gecko) draw.io/28.1.2 Chrome/138.0.7204.243 Electron/37.4.0 Safari/537.36" version="28.1.2">
  <diagram name="Page-1" id="osQB_2X0EcH8lznaNfnD">
    <mxGraphModel dx="1165" dy="569" grid="1" gridSize="10" guides="1" tooltips="1" connect="1" arrows="1" fold="1" page="1" pageScale="1" pageWidth="827" pageHeight="1169" math="0" shadow="0">
      <root>
        <mxCell id="0" />
        <mxCell id="1" parent="0" />
        <mxCell id="JjcFjfH_84pJ9SnKjnFw-11" style="edgeStyle=orthogonalEdgeStyle;rounded=0;orthogonalLoop=1;jettySize=auto;html=1;" parent="1" source="JjcFjfH_84pJ9SnKjnFw-1" target="JjcFjfH_84pJ9SnKjnFw-2" edge="1">
          <mxGeometry relative="1" as="geometry" />
        </mxCell>
        <mxCell id="JjcFjfH_84pJ9SnKjnFw-13" value="1" style="edgeLabel;html=1;align=center;verticalAlign=middle;resizable=0;points=[];" parent="JjcFjfH_84pJ9SnKjnFw-11" vertex="1" connectable="0">
          <mxGeometry x="-0.74" y="1" relative="1" as="geometry">
            <mxPoint as="offset" />
          </mxGeometry>
        </mxCell>
        <mxCell id="JjcFjfH_84pJ9SnKjnFw-14" value="*" style="edgeLabel;html=1;align=center;verticalAlign=middle;resizable=0;points=[];" parent="JjcFjfH_84pJ9SnKjnFw-11" vertex="1" connectable="0">
          <mxGeometry x="0.56" y="-3" relative="1" as="geometry">
            <mxPoint as="offset" />
          </mxGeometry>
        </mxCell>
        <mxCell id="JjcFjfH_84pJ9SnKjnFw-1" value="student&lt;div&gt;student_id&lt;br&gt;&lt;div&gt;fistname: string 50&lt;/div&gt;&lt;div&gt;lastname: string 50&lt;/div&gt;&lt;div&gt;matricule : int&amp;nbsp;&lt;/div&gt;&lt;/div&gt;" style="rounded=0;whiteSpace=wrap;html=1;" parent="1" vertex="1">
          <mxGeometry x="200" y="180" width="130" height="70" as="geometry" />
        </mxCell>
        <mxCell id="JjcFjfH_84pJ9SnKjnFw-2" value="student_course&lt;div&gt;student_id&lt;/div&gt;&lt;div&gt;course_id&lt;br&gt;&lt;div&gt;total_grade: int&amp;nbsp;&lt;/div&gt;&lt;/div&gt;" style="rounded=0;whiteSpace=wrap;html=1;" parent="1" vertex="1">
          <mxGeometry x="10" y="190" width="120" height="60" as="geometry" />
        </mxCell>
        <mxCell id="JjcFjfH_84pJ9SnKjnFw-12" style="edgeStyle=orthogonalEdgeStyle;rounded=0;orthogonalLoop=1;jettySize=auto;html=1;entryX=0.5;entryY=1;entryDx=0;entryDy=0;" parent="1" source="JjcFjfH_84pJ9SnKjnFw-3" target="JjcFjfH_84pJ9SnKjnFw-2" edge="1">
          <mxGeometry relative="1" as="geometry" />
        </mxCell>
        <mxCell id="JjcFjfH_84pJ9SnKjnFw-15" value="*" style="edgeLabel;html=1;align=center;verticalAlign=middle;resizable=0;points=[];" parent="JjcFjfH_84pJ9SnKjnFw-12" vertex="1" connectable="0">
          <mxGeometry x="0.552" relative="1" as="geometry">
            <mxPoint as="offset" />
          </mxGeometry>
        </mxCell>
        <mxCell id="JjcFjfH_84pJ9SnKjnFw-16" value="1" style="edgeLabel;html=1;align=center;verticalAlign=middle;resizable=0;points=[];" parent="JjcFjfH_84pJ9SnKjnFw-12" vertex="1" connectable="0">
          <mxGeometry x="-0.648" y="2" relative="1" as="geometry">
            <mxPoint as="offset" />
          </mxGeometry>
        </mxCell>
        <mxCell id="JjcFjfH_84pJ9SnKjnFw-17" style="edgeStyle=orthogonalEdgeStyle;rounded=0;orthogonalLoop=1;jettySize=auto;html=1;" parent="1" target="JjcFjfH_84pJ9SnKjnFw-4" edge="1">
          <mxGeometry relative="1" as="geometry">
            <mxPoint x="90" y="410" as="sourcePoint" />
          </mxGeometry>
        </mxCell>
        <mxCell id="JjcFjfH_84pJ9SnKjnFw-19" value="1" style="edgeLabel;html=1;align=center;verticalAlign=middle;resizable=0;points=[];" parent="JjcFjfH_84pJ9SnKjnFw-17" vertex="1" connectable="0">
          <mxGeometry x="-0.7414" y="-1" relative="1" as="geometry">
            <mxPoint as="offset" />
          </mxGeometry>
        </mxCell>
        <mxCell id="JjcFjfH_84pJ9SnKjnFw-20" value="*" style="edgeLabel;html=1;align=center;verticalAlign=middle;resizable=0;points=[];" parent="JjcFjfH_84pJ9SnKjnFw-17" vertex="1" connectable="0">
          <mxGeometry x="0.6108" y="1" relative="1" as="geometry">
            <mxPoint as="offset" />
          </mxGeometry>
        </mxCell>
        <mxCell id="ZleAU3-y6KljYBJA8sC--29" value="1" style="edgeLabel;html=1;align=center;verticalAlign=middle;resizable=0;points=[];" vertex="1" connectable="0" parent="JjcFjfH_84pJ9SnKjnFw-17">
          <mxGeometry x="-0.4668" y="-1" relative="1" as="geometry">
            <mxPoint as="offset" />
          </mxGeometry>
        </mxCell>
        <mxCell id="ZleAU3-y6KljYBJA8sC--1" style="edgeStyle=orthogonalEdgeStyle;rounded=0;orthogonalLoop=1;jettySize=auto;html=1;" edge="1" parent="1" source="JjcFjfH_84pJ9SnKjnFw-3" target="JjcFjfH_84pJ9SnKjnFw-6">
          <mxGeometry relative="1" as="geometry" />
        </mxCell>
        <mxCell id="ZleAU3-y6KljYBJA8sC--2" value="*" style="edgeLabel;html=1;align=center;verticalAlign=middle;resizable=0;points=[];" vertex="1" connectable="0" parent="ZleAU3-y6KljYBJA8sC--1">
          <mxGeometry x="-0.8861" relative="1" as="geometry">
            <mxPoint as="offset" />
          </mxGeometry>
        </mxCell>
        <mxCell id="ZleAU3-y6KljYBJA8sC--3" value="1" style="edgeLabel;html=1;align=center;verticalAlign=middle;resizable=0;points=[];" vertex="1" connectable="0" parent="ZleAU3-y6KljYBJA8sC--1">
          <mxGeometry x="0.8692" y="1" relative="1" as="geometry">
            <mxPoint as="offset" />
          </mxGeometry>
        </mxCell>
        <mxCell id="ZleAU3-y6KljYBJA8sC--7" style="edgeStyle=orthogonalEdgeStyle;rounded=0;orthogonalLoop=1;jettySize=auto;html=1;exitX=1;exitY=0.75;exitDx=0;exitDy=0;entryX=0;entryY=0.25;entryDx=0;entryDy=0;" edge="1" parent="1" source="JjcFjfH_84pJ9SnKjnFw-3" target="JjcFjfH_84pJ9SnKjnFw-8">
          <mxGeometry relative="1" as="geometry">
            <Array as="points">
              <mxPoint x="150" y="420" />
              <mxPoint x="325" y="420" />
              <mxPoint x="325" y="400" />
            </Array>
          </mxGeometry>
        </mxCell>
        <mxCell id="ZleAU3-y6KljYBJA8sC--8" value="1" style="edgeLabel;html=1;align=center;verticalAlign=middle;resizable=0;points=[];" vertex="1" connectable="0" parent="ZleAU3-y6KljYBJA8sC--7">
          <mxGeometry x="-0.906" y="1" relative="1" as="geometry">
            <mxPoint as="offset" />
          </mxGeometry>
        </mxCell>
        <mxCell id="ZleAU3-y6KljYBJA8sC--9" value="*" style="edgeLabel;html=1;align=center;verticalAlign=middle;resizable=0;points=[];" vertex="1" connectable="0" parent="ZleAU3-y6KljYBJA8sC--7">
          <mxGeometry x="0.8124" y="3" relative="1" as="geometry">
            <mxPoint as="offset" />
          </mxGeometry>
        </mxCell>
        <mxCell id="ZleAU3-y6KljYBJA8sC--27" value="*" style="edgeLabel;html=1;align=center;verticalAlign=middle;resizable=0;points=[];" vertex="1" connectable="0" parent="ZleAU3-y6KljYBJA8sC--7">
          <mxGeometry x="0.265" y="-3" relative="1" as="geometry">
            <mxPoint as="offset" />
          </mxGeometry>
        </mxCell>
        <mxCell id="JjcFjfH_84pJ9SnKjnFw-3" value="course&lt;div&gt;course_id&lt;br&gt;&lt;div&gt;title: String 20&amp;nbsp;&lt;/div&gt;&lt;div&gt;sigle : String 15&lt;/div&gt;&lt;/div&gt;&lt;div&gt;departement_id&lt;/div&gt;" style="rounded=0;whiteSpace=wrap;html=1;" parent="1" vertex="1">
          <mxGeometry x="10" y="340" width="120" height="80" as="geometry" />
        </mxCell>
        <mxCell id="JjcFjfH_84pJ9SnKjnFw-4" value="prof_course&lt;div&gt;prof_id&lt;/div&gt;&lt;div&gt;course_id&lt;/div&gt;" style="rounded=0;whiteSpace=wrap;html=1;" parent="1" vertex="1">
          <mxGeometry x="20" y="470" width="120" height="60" as="geometry" />
        </mxCell>
        <mxCell id="JjcFjfH_84pJ9SnKjnFw-18" style="edgeStyle=orthogonalEdgeStyle;rounded=0;orthogonalLoop=1;jettySize=auto;html=1;" parent="1" source="JjcFjfH_84pJ9SnKjnFw-5" target="JjcFjfH_84pJ9SnKjnFw-4" edge="1">
          <mxGeometry relative="1" as="geometry" />
        </mxCell>
        <mxCell id="JjcFjfH_84pJ9SnKjnFw-21" value="*" style="edgeLabel;html=1;align=center;verticalAlign=middle;resizable=0;points=[];" parent="JjcFjfH_84pJ9SnKjnFw-18" vertex="1" connectable="0">
          <mxGeometry x="0.5022" y="-1" relative="1" as="geometry">
            <mxPoint as="offset" />
          </mxGeometry>
        </mxCell>
        <mxCell id="JjcFjfH_84pJ9SnKjnFw-22" value="*" style="edgeLabel;html=1;align=center;verticalAlign=middle;resizable=0;points=[];" parent="JjcFjfH_84pJ9SnKjnFw-18" vertex="1" connectable="0">
          <mxGeometry x="-0.5644" relative="1" as="geometry">
            <mxPoint as="offset" />
          </mxGeometry>
        </mxCell>
        <mxCell id="ZleAU3-y6KljYBJA8sC--30" value="1" style="edgeLabel;html=1;align=center;verticalAlign=middle;resizable=0;points=[];" vertex="1" connectable="0" parent="JjcFjfH_84pJ9SnKjnFw-18">
          <mxGeometry x="-0.4855" y="-1" relative="1" as="geometry">
            <mxPoint as="offset" />
          </mxGeometry>
        </mxCell>
        <mxCell id="JjcFjfH_84pJ9SnKjnFw-23" value="" style="edgeStyle=orthogonalEdgeStyle;rounded=0;orthogonalLoop=1;jettySize=auto;html=1;" parent="1" source="JjcFjfH_84pJ9SnKjnFw-5" target="JjcFjfH_84pJ9SnKjnFw-6" edge="1">
          <mxGeometry relative="1" as="geometry" />
        </mxCell>
        <mxCell id="JjcFjfH_84pJ9SnKjnFw-24" value="1" style="edgeLabel;html=1;align=center;verticalAlign=middle;resizable=0;points=[];" parent="JjcFjfH_84pJ9SnKjnFw-23" vertex="1" connectable="0">
          <mxGeometry x="0.5543" y="-1" relative="1" as="geometry">
            <mxPoint as="offset" />
          </mxGeometry>
        </mxCell>
        <mxCell id="ZleAU3-y6KljYBJA8sC--31" value="*" style="edgeLabel;html=1;align=center;verticalAlign=middle;resizable=0;points=[];" vertex="1" connectable="0" parent="JjcFjfH_84pJ9SnKjnFw-23">
          <mxGeometry x="-0.8733" y="-1" relative="1" as="geometry">
            <mxPoint as="offset" />
          </mxGeometry>
        </mxCell>
        <mxCell id="ZleAU3-y6KljYBJA8sC--38" style="edgeStyle=orthogonalEdgeStyle;rounded=0;orthogonalLoop=1;jettySize=auto;html=1;exitX=1;exitY=0.75;exitDx=0;exitDy=0;entryX=1;entryY=1;entryDx=0;entryDy=0;" edge="1" parent="1" source="JjcFjfH_84pJ9SnKjnFw-5" target="JjcFjfH_84pJ9SnKjnFw-10">
          <mxGeometry relative="1" as="geometry" />
        </mxCell>
        <mxCell id="ZleAU3-y6KljYBJA8sC--39" value="1" style="edgeLabel;html=1;align=center;verticalAlign=middle;resizable=0;points=[];" vertex="1" connectable="0" parent="ZleAU3-y6KljYBJA8sC--38">
          <mxGeometry x="-0.9624" relative="1" as="geometry">
            <mxPoint as="offset" />
          </mxGeometry>
        </mxCell>
        <mxCell id="ZleAU3-y6KljYBJA8sC--40" value="*" style="edgeLabel;html=1;align=center;verticalAlign=middle;resizable=0;points=[];" vertex="1" connectable="0" parent="ZleAU3-y6KljYBJA8sC--38">
          <mxGeometry x="0.9635" y="1" relative="1" as="geometry">
            <mxPoint as="offset" />
          </mxGeometry>
        </mxCell>
        <mxCell id="JjcFjfH_84pJ9SnKjnFw-5" value="prof&amp;nbsp;&lt;div&gt;prof_id&lt;br&gt;&lt;div&gt;firstname:string 50&lt;/div&gt;&lt;div&gt;lastname: 50&lt;/div&gt;&lt;/div&gt;&lt;div&gt;department_id&lt;/div&gt;" style="rounded=0;whiteSpace=wrap;html=1;" parent="1" vertex="1">
          <mxGeometry x="35" y="630" width="115" height="70" as="geometry" />
        </mxCell>
        <mxCell id="JjcFjfH_84pJ9SnKjnFw-6" value="departement&lt;div&gt;departement_id&lt;br&gt;&lt;div&gt;title:string 30&amp;nbsp;&lt;/div&gt;&lt;/div&gt;" style="rounded=0;whiteSpace=wrap;html=1;" parent="1" vertex="1">
          <mxGeometry x="220" y="570" width="120" height="60" as="geometry" />
        </mxCell>
        <mxCell id="JjcFjfH_84pJ9SnKjnFw-7" value="evalutation_file&lt;div&gt;evluation_file_id&lt;br&gt;&lt;div&gt;bucket_url:int&lt;/div&gt;&lt;div&gt;evaluation_id&lt;/div&gt;&lt;/div&gt;" style="rounded=0;whiteSpace=wrap;html=1;" parent="1" vertex="1">
          <mxGeometry x="505" y="555" width="120" height="60" as="geometry" />
        </mxCell>
        <mxCell id="JjcFjfH_84pJ9SnKjnFw-8" value="evaluation&lt;div&gt;evaluation_id&lt;br&gt;&lt;div&gt;name: string 50&lt;/div&gt;&lt;div&gt;type:string 20&lt;/div&gt;&lt;div&gt;due_datetime: datetimes&lt;/div&gt;&lt;/div&gt;&lt;div&gt;course_id&lt;/div&gt;" style="rounded=0;whiteSpace=wrap;html=1;" parent="1" vertex="1">
          <mxGeometry x="490" y="380" width="150" height="100" as="geometry" />
        </mxCell>
        <mxCell id="JjcFjfH_84pJ9SnKjnFw-30" value="" style="edgeStyle=orthogonalEdgeStyle;rounded=0;orthogonalLoop=1;jettySize=auto;html=1;" parent="1" source="JjcFjfH_84pJ9SnKjnFw-9" target="JjcFjfH_84pJ9SnKjnFw-10" edge="1">
          <mxGeometry relative="1" as="geometry" />
        </mxCell>
        <mxCell id="JjcFjfH_84pJ9SnKjnFw-31" value="1" style="edgeLabel;html=1;align=center;verticalAlign=middle;resizable=0;points=[];" parent="JjcFjfH_84pJ9SnKjnFw-30" vertex="1" connectable="0">
          <mxGeometry x="-0.6727" y="1" relative="1" as="geometry">
            <mxPoint as="offset" />
          </mxGeometry>
        </mxCell>
        <mxCell id="JjcFjfH_84pJ9SnKjnFw-32" value="*" style="edgeLabel;html=1;align=center;verticalAlign=middle;resizable=0;points=[];" parent="JjcFjfH_84pJ9SnKjnFw-30" vertex="1" connectable="0">
          <mxGeometry x="0.6182" y="-1" relative="1" as="geometry">
            <mxPoint as="offset" />
          </mxGeometry>
        </mxCell>
        <mxCell id="JjcFjfH_84pJ9SnKjnFw-9" value="forum&lt;div&gt;forum_id&lt;br&gt;&lt;div&gt;&lt;span style=&quot;background-color: transparent; color: light-dark(rgb(0, 0, 0), rgb(255, 255, 255));&quot;&gt;title: string 20&lt;/span&gt;&lt;/div&gt;&lt;/div&gt;&lt;div&gt;&lt;span style=&quot;background-color: transparent; color: light-dark(rgb(0, 0, 0), rgb(255, 255, 255));&quot;&gt;course_id&lt;/span&gt;&lt;/div&gt;" style="rounded=0;whiteSpace=wrap;html=1;" parent="1" vertex="1">
          <mxGeometry x="310" y="270" width="120" height="60" as="geometry" />
        </mxCell>
        <mxCell id="JjcFjfH_84pJ9SnKjnFw-10" value="forum_message&lt;div&gt;forum_message_id&lt;br&gt;&lt;div&gt;message:string 50&lt;/div&gt;&lt;/div&gt;&lt;div&gt;student_id&lt;/div&gt;&lt;div&gt;prof_id&lt;/div&gt;&lt;div&gt;forum_id&lt;/div&gt;" style="rounded=0;whiteSpace=wrap;html=1;" parent="1" vertex="1">
          <mxGeometry x="520" y="140" width="150" height="100" as="geometry" />
        </mxCell>
        <mxCell id="ZleAU3-y6KljYBJA8sC--13" value="" style="endArrow=none;html=1;rounded=0;exitX=0.5;exitY=0;exitDx=0;exitDy=0;entryX=0.5;entryY=1;entryDx=0;entryDy=0;" edge="1" parent="1" source="JjcFjfH_84pJ9SnKjnFw-7" target="JjcFjfH_84pJ9SnKjnFw-8">
          <mxGeometry width="50" height="50" relative="1" as="geometry">
            <mxPoint x="340" y="430" as="sourcePoint" />
            <mxPoint x="390" y="380" as="targetPoint" />
          </mxGeometry>
        </mxCell>
        <mxCell id="ZleAU3-y6KljYBJA8sC--14" value="1" style="edgeLabel;html=1;align=center;verticalAlign=middle;resizable=0;points=[];" vertex="1" connectable="0" parent="ZleAU3-y6KljYBJA8sC--13">
          <mxGeometry x="0.45" y="-4" relative="1" as="geometry">
            <mxPoint as="offset" />
          </mxGeometry>
        </mxCell>
        <mxCell id="ZleAU3-y6KljYBJA8sC--15" value="1" style="edgeLabel;html=1;align=center;verticalAlign=middle;resizable=0;points=[];" vertex="1" connectable="0" parent="ZleAU3-y6KljYBJA8sC--13">
          <mxGeometry x="-0.55" y="2" relative="1" as="geometry">
            <mxPoint as="offset" />
          </mxGeometry>
        </mxCell>
        <mxCell id="ZleAU3-y6KljYBJA8sC--16" value="" style="endArrow=none;html=1;rounded=0;entryX=0.5;entryY=1;entryDx=0;entryDy=0;exitX=1;exitY=0.25;exitDx=0;exitDy=0;" edge="1" parent="1" source="JjcFjfH_84pJ9SnKjnFw-3" target="JjcFjfH_84pJ9SnKjnFw-9">
          <mxGeometry width="50" height="50" relative="1" as="geometry">
            <mxPoint x="340" y="430" as="sourcePoint" />
            <mxPoint x="390" y="380" as="targetPoint" />
          </mxGeometry>
        </mxCell>
        <mxCell id="ZleAU3-y6KljYBJA8sC--17" value="1" style="edgeLabel;html=1;align=center;verticalAlign=middle;resizable=0;points=[];" vertex="1" connectable="0" parent="ZleAU3-y6KljYBJA8sC--16">
          <mxGeometry x="-0.8727" y="1" relative="1" as="geometry">
            <mxPoint as="offset" />
          </mxGeometry>
        </mxCell>
        <mxCell id="ZleAU3-y6KljYBJA8sC--18" value="1" style="edgeLabel;html=1;align=center;verticalAlign=middle;resizable=0;points=[];" vertex="1" connectable="0" parent="ZleAU3-y6KljYBJA8sC--16">
          <mxGeometry x="0.7926" y="-2" relative="1" as="geometry">
            <mxPoint as="offset" />
          </mxGeometry>
        </mxCell>
        <mxCell id="ZleAU3-y6KljYBJA8sC--34" style="edgeStyle=orthogonalEdgeStyle;rounded=0;orthogonalLoop=1;jettySize=auto;html=1;entryX=0;entryY=0.5;entryDx=0;entryDy=0;" edge="1" parent="1" source="JjcFjfH_84pJ9SnKjnFw-1" target="JjcFjfH_84pJ9SnKjnFw-10">
          <mxGeometry relative="1" as="geometry" />
        </mxCell>
        <mxCell id="ZleAU3-y6KljYBJA8sC--35" value="1" style="edgeLabel;html=1;align=center;verticalAlign=middle;resizable=0;points=[];" vertex="1" connectable="0" parent="ZleAU3-y6KljYBJA8sC--34">
          <mxGeometry x="-0.8412" y="-2" relative="1" as="geometry">
            <mxPoint as="offset" />
          </mxGeometry>
        </mxCell>
        <mxCell id="ZleAU3-y6KljYBJA8sC--37" value="*" style="edgeLabel;html=1;align=center;verticalAlign=middle;resizable=0;points=[];" vertex="1" connectable="0" parent="ZleAU3-y6KljYBJA8sC--34">
          <mxGeometry x="0.8216" y="2" relative="1" as="geometry">
            <mxPoint as="offset" />
          </mxGeometry>
        </mxCell>
      </root>
    </mxGraphModel>
  </diagram>
</mxfile>
